<?xml version="1.0" encoding="UTF-8"?>
<svg version="1.1" xmlns="http://www.w3.org/2000/svg" width="1535" height="1024">
<path d="M0 0 C506.55 0 1013.1 0 1535 0 C1535 337.92 1535 675.84 1535 1024 C1028.45 1024 521.9 1024 0 1024 C0 686.08 0 348.16 0 0 Z " fill="#FDFDFD" transform="translate(0,0)"/>
<path d="M0 0 C1.65727538 -0.00599739 3.31454798 -0.01280569 4.97181702 -0.02035522 C9.44119592 -0.0379013 13.91049806 -0.04270581 18.37990808 -0.0439868 C21.18222363 -0.04541568 23.98452012 -0.04969918 26.7868309 -0.05498123 C36.59178642 -0.0734453 46.39668783 -0.08165658 56.20166016 -0.08007812 C65.29479177 -0.07887839 74.38768541 -0.09995712 83.48075688 -0.13156545 C91.32581243 -0.15784913 99.17079084 -0.16844035 107.01589 -0.16716731 C111.68441657 -0.16666113 116.35273142 -0.17215141 121.02121353 -0.19352341 C125.41927674 -0.21311052 129.81693072 -0.21289293 134.21500969 -0.19849014 C135.81357241 -0.19642589 137.41216216 -0.20095735 139.01067924 -0.21321106 C153.07617042 -0.31390221 168.16457752 1.10992171 180.72607422 7.97802734 C181.37568115 8.31833984 182.02528809 8.65865234 182.69458008 9.00927734 C188.65896431 12.26971847 193.54103669 16.37036712 198.22607422 21.29052734 C199.17353516 22.24378906 199.17353516 22.24378906 200.14013672 23.21630859 C215.28538462 39.32898423 218.53288467 59.93708099 218.51660156 81.18481445 C218.52259844 82.75988072 218.52940661 84.33494407 218.53695679 85.91000366 C218.55451308 90.16057556 218.55930795 94.41106675 218.56058836 98.6616714 C218.56201723 101.32814717 218.5663008 103.99460292 218.57158279 106.66107368 C218.59005376 115.99500945 218.59825771 125.32888836 218.59667969 134.6628418 C218.59548136 143.31114494 218.61653042 151.95919728 218.64816701 160.60743707 C218.67448607 168.07288958 218.68504038 175.53826101 218.68376887 183.00375944 C218.6832635 187.44433244 218.68870678 191.88468261 218.71012497 196.32520866 C218.84469941 226.28750491 218.29806153 253.84406119 196.60498047 277.00537109 C178.99111427 293.92509479 155.47302627 296.61952071 132.18139648 296.54931641 C130.63866004 296.55203529 129.09592489 296.5556012 127.55319214 296.55993652 C123.41054309 296.56895702 119.26799505 296.56555935 115.12534451 296.55917835 C110.7593367 296.55406326 106.3933367 296.55882502 102.02732849 296.56195068 C94.69862336 296.56557483 87.36995873 296.5608326 80.04125977 296.55126953 C71.60871938 296.54039207 63.17627579 296.54391172 54.74373776 296.55492234 C47.4617085 296.56404456 40.17970811 296.56525641 32.89767498 296.560045 C28.56690987 296.55695174 24.23619001 296.55644209 19.90542793 296.56311798 C15.82998197 296.56896304 11.75465884 296.56476602 7.67922592 296.55332947 C6.19754552 296.55072049 4.71585449 296.55138207 3.23417854 296.5558548 C-19.89162507 296.61914269 -42.22113076 293.1385392 -59.68408203 276.61865234 C-63.93862845 271.87900811 -67.36107865 266.64596972 -70.77392578 261.29052734 C-71.28052734 260.55189453 -71.78712891 259.81326172 -72.30908203 259.05224609 C-80.81238114 245.66020009 -80.92422551 227.44204221 -80.93505859 212.17993164 C-80.93969408 210.65294782 -80.94471971 209.12596513 -80.95010376 207.59898376 C-80.96316571 203.46608257 -80.9696614 199.33319759 -80.97411442 195.200279 C-80.97705726 192.60904525 -80.98116444 190.01781581 -80.98561859 187.42658424 C-80.99928173 179.29312592 -81.00895225 171.15967758 -81.01282048 163.02620858 C-81.01728823 153.68708124 -81.03478123 144.3481012 -81.06382108 135.0090186 C-81.08556831 127.75936046 -81.09553178 120.50974334 -81.0968616 113.26005298 C-81.09790103 108.94525488 -81.10362123 104.63059543 -81.12168121 100.31583214 C-81.33795549 45.39588803 -81.33795549 45.39588803 -62.77392578 23.29052734 C-62.25572266 22.66017578 -61.73751953 22.02982422 -61.20361328 21.38037109 C-45.25202947 3.78553368 -22.53121421 -0.01642692 0 0 Z " fill="#056BFD" transform="translate(228.77392578125,343.70947265625)"/>
<path d="M0 0 C11.96933422 9.74645786 19.97205244 20.21796234 25.375 34.6875 C25.90738281 35.84636719 26.43976563 37.00523437 26.98828125 38.19921875 C29.1762027 44.07638522 28.84878135 50.18408213 28.8125 56.375 C28.83248047 57.56544922 28.85246094 58.75589844 28.87304688 59.98242188 C28.86681984 71.43393154 26.12352383 81.77027011 20.375 91.6875 C19.99110107 92.35338135 19.60720215 93.0192627 19.21166992 93.70532227 C8.74503453 111.12065789 -6.92070104 121.82908943 -26.2109375 127.796875 C-31.71495153 129.11729226 -37.24350595 129.01694192 -42.875 129 C-43.93074219 129.01611328 -44.98648438 129.03222656 -46.07421875 129.04882812 C-63.69188439 129.05961005 -78.58533751 122.40907386 -91.625 110.6875 C-92.23601562 110.16929687 -92.84703125 109.65109375 -93.4765625 109.1171875 C-101.49121243 101.83446907 -108.06924842 90.86987952 -111.625 80.6875 C-111.92148438 79.90503906 -112.21796875 79.12257813 -112.5234375 78.31640625 C-116.9955605 64.18203586 -116.84746815 45.18412105 -110.625 31.6875 C-110.35123535 31.08647461 -110.0774707 30.48544922 -109.79541016 29.86621094 C-105.64117547 20.93629508 -100.73877877 13.59277146 -93.625 6.6875 C-92.93921875 5.99269531 -92.2534375 5.29789062 -91.546875 4.58203125 C-66.33386243 -19.55709375 -27.54447079 -20.42252714 0 0 Z " fill="#FAFCFE" transform="translate(340.625,448.3125)"/>
<path d="M0 0 C2.92765925 2.30030369 5.79798428 4.63934367 8.625 7.0625 C8.625 3.4325 8.625 -0.1975 8.625 -3.9375 C16.545 -3.9375 24.465 -3.9375 32.625 -3.9375 C32.7156536 8.61558255 32.78891895 21.16844486 32.83224869 33.72178173 C32.85305305 39.55186897 32.88123935 45.3817191 32.92675781 51.21166992 C32.9704714 56.84622312 32.99419079 62.48054938 33.00450897 68.11525917 C33.01185475 70.25647868 33.02619838 72.39768689 33.04792023 74.53880882 C33.20634939 90.81413032 32.41583388 104.86685171 21.625 118.0625 C9.41454783 129.89448791 -4.31375885 133.58610521 -21.00634766 133.48388672 C-32.81986767 133.1462298 -44.04652298 129.16457495 -52.66796875 120.8515625 C-56.00845702 117.18858629 -59.17742379 113.53538019 -61.375 109.0625 C-61.16699219 107.04174805 -61.16699219 107.04174805 -60.375 105.0625 C-58.85620117 103.87402344 -58.85620117 103.87402344 -56.91796875 102.921875 C-56.21736328 102.57382812 -55.51675781 102.22578125 -54.79492188 101.8671875 C-54.05822266 101.51914062 -53.32152344 101.17109375 -52.5625 100.8125 C-51.83740234 100.44898438 -51.11230469 100.08546875 -50.36523438 99.7109375 C-46.61706943 97.88657908 -44.67936267 97.0625 -40.375 97.0625 C-38.953125 98.890625 -38.953125 98.890625 -37.625 101.3125 C-33.9786411 107.21347776 -29.74538642 108.93903786 -23.375 111.0625 C-15.46209392 111.87785012 -8.4364454 110.81316936 -1.375 107.0625 C4.2160838 102.47626537 6.79773557 95.83999584 7.59960938 88.84765625 C7.70499023 87.77837891 7.70499023 87.77837891 7.8125 86.6875 C7.89435547 85.95144531 7.97621094 85.21539063 8.06054688 84.45703125 C8.25892556 82.65995375 8.44340577 80.86135107 8.625 79.0625 C7.965 79.0625 7.305 79.0625 6.625 79.0625 C6.37621094 79.65933594 6.12742187 80.25617188 5.87109375 80.87109375 C2.73497489 86.38633726 -3.90068248 89.16675969 -9.75 90.9375 C-22.45858155 93.88518489 -33.94568767 91.51465991 -45.1875 84.9375 C-50.74194849 81.16436152 -54.60183788 76.57024376 -58.375 71.0625 C-58.79523438 70.4540625 -59.21546875 69.845625 -59.6484375 69.21875 C-67.55670292 56.61309383 -67.10216131 40.15830793 -63.9375 26.0625 C-60.37771883 14.5587861 -52.48140952 5.46579763 -42.375 -0.9375 C-28.27008719 -7.89862963 -13.82830667 -7.93847235 0 0 Z " fill="#050A18" transform="translate(1257.375,473.9375)"/>
<path d="M0 0 C71.72024402 0 71.72024402 0 85.375 12.8125 C94.59035612 22.68879355 96.58968139 33.10737871 96.30859375 46.15234375 C95.75080894 58.01857919 91.51160899 66.91200869 82.8984375 74.96484375 C70.52595695 85.30439022 56.40714036 86.30832225 40.9375 86.125 C36.008125 86.08375 31.07875 86.0425 26 86 C26 102.83 26 119.66 26 137 C17.42 137 8.84 137 0 137 C0 91.79 0 46.58 0 0 Z " fill="#050A19" transform="translate(518,429)"/>
<path d="M0 0 C9.64506833 6.10696728 16.69135007 16.63885383 19.3203125 27.68994141 C21.46024538 43.28846039 20.76852426 58.09298625 11.28125 71.18212891 C10.79011719 71.82666016 10.29898437 72.47119141 9.79296875 73.13525391 C9.05046875 74.16650391 8.30796875 75.19775391 7.54296875 76.26025391 C-1.83662277 86.0661905 -13.50599929 91.16891297 -26.97192383 91.72729492 C-42.86211609 91.9187772 -55.35076469 87.55113408 -67.04296875 76.38134766 C-77.34043568 65.11685972 -80.02898765 51.45834327 -79.5546875 36.61572266 C-78.9436723 26.37300552 -75.82259886 17.05906859 -69.20703125 9.13525391 C-68.58183594 8.37599609 -67.95664063 7.61673828 -67.3125 6.83447266 C-49.37970744 -12.96146718 -21.83443698 -12.6550392 0 0 Z " fill="#050A18" transform="translate(1094.20703125,476.86474609375)"/>
<path d="M0 0 C7.3144379 5.77330836 11.47482367 12.45822659 15 21 C15.3403125 21.78890625 15.680625 22.5778125 16.03125 23.390625 C18.91246815 31.23394108 18.48281127 39.76435388 18 48 C17 49 17 49 14.29820251 49.12025452 C13.09241043 49.11803391 11.88661835 49.11581329 10.64428711 49.11352539 C9.98089828 49.11367142 9.31750946 49.11381744 8.63401794 49.1139679 C6.43176044 49.11326881 4.22958655 49.10547665 2.02734375 49.09765625 C0.50419664 49.09579206 -1.01895107 49.09436816 -2.542099 49.09336853 C-6.55837651 49.08954346 -10.57461808 49.07971328 -14.59088135 49.06866455 C-18.68623366 49.05845019 -22.78159176 49.05387086 -26.87695312 49.04882812 C-34.91798528 49.038091 -42.95898817 49.02101472 -51 49 C-50.39326358 50.77353722 -49.77680366 52.54375001 -49.15625 54.3125 C-48.64288086 55.79169922 -48.64288086 55.79169922 -48.11914062 57.30078125 C-46.69737343 60.72989514 -44.88434814 62.69252149 -42 65 C-41.360625 65.556875 -40.72125 66.11375 -40.0625 66.6875 C-34.17428454 70.4345462 -27.79529384 70.88514004 -21 70 C-13.83680618 67.69791189 -9.44120192 63.96056047 -5 58 C-0.55589486 58.94623145 2.82911108 61.05482703 6.6875 63.375 C7.37650391 63.77460937 8.06550781 64.17421875 8.77539062 64.5859375 C13.87902617 67.63707852 13.87902617 67.63707852 15 71 C9.67006235 81.65987531 -1.27285634 87.2431711 -12 91 C-24.90278361 94.69669726 -40.22864788 92.4784946 -51.953125 86.4921875 C-63.8272399 79.51695607 -70.53877181 69.65813503 -75.13671875 56.828125 C-78.04470135 43.93299856 -77.76365969 28.5851098 -71 17 C-68.89155858 13.75470299 -66.60576237 10.85793292 -64 8 C-63.43152344 7.36320312 -62.86304688 6.72640625 -62.27734375 6.0703125 C-46.23066646 -10.96329027 -19.39826887 -12.70921064 0 0 Z " fill="#070C1A" transform="translate(840,476)"/>
<path d="M0 0 C9.45445955 7.85713076 13.89684708 18.08213347 16 30 C16 35.61 16 41.22 16 47 C-6.77 47 -29.54 47 -53 47 C-50.30027215 57.39807136 -50.30027215 57.39807136 -43.0390625 64.21484375 C-36.507309 67.62641017 -30.37548843 68.94827708 -23 68 C-17.6897364 66.10347729 -12.49183378 63.5545658 -9 59 C-8.505 57.515 -8.505 57.515 -8 56 C-2.75118824 56.48657624 1.0073114 59.26547398 5.3125 62.0625 C6.42334961 62.77116211 6.42334961 62.77116211 7.55664062 63.49414062 C9.37551219 64.65587149 11.1883659 65.82701482 13 67 C9.52629934 76.38059255 2.72129542 81.45367309 -6 86 C-18.97885719 91.87591404 -34.79251215 92.12374081 -48.14453125 87.25 C-61.84267454 81.25354877 -70.38982637 71.88280255 -76 58 C-80.69815386 45.42619691 -78.8376046 29.33294997 -73.8515625 17.20703125 C-67.55474328 4.30401151 -57.10729643 -4.13413282 -43.69921875 -8.80078125 C-28.63889844 -12.84807026 -12.31268512 -9.36834737 0 0 Z " fill="#060B1A" transform="translate(1380,478)"/>
<path d="M0 0 C28.71 0 57.42 0 87 0 C87 7.92 87 15.84 87 24 C66.87 24 46.74 24 26 24 C26 35.55 26 47.1 26 59 C43.82 59 61.64 59 80 59 C80 66.59 80 74.18 80 82 C62.18 82 44.36 82 26 82 C26 100.15 26 118.3 26 137 C17.42 137 8.84 137 0 137 C0 91.79 0 46.58 0 0 Z " fill="#050A18" transform="translate(922,429)"/>
<path d="M0 0 C4.51917419 -0.32077927 9.03542532 -0.5151892 13.5625 -0.6875 C15.47772461 -0.82575195 15.47772461 -0.82575195 17.43164062 -0.96679688 C21.23141974 -1.07536199 24.33063431 -1.01018063 28 0 C31.31271825 3.21719663 33.04661716 6.85813995 35 11 C35.90596763 12.45764191 36.83707788 13.90018113 37.80078125 15.3203125 C38.22037109 15.95710938 38.63996094 16.59390625 39.07226562 17.25 C39.68618164 18.178125 39.68618164 18.178125 40.3125 19.125 C40.74111328 19.78242188 41.16972656 20.43984375 41.61132812 21.1171875 C43.77345772 24.61373145 43.77345772 24.61373145 47 27 C47.23074219 26.32710938 47.46148438 25.65421875 47.69921875 24.9609375 C49.34647883 21.21131845 51.51104594 18.00091789 53.8125 14.625 C54.23853516 13.99078125 54.66457031 13.3565625 55.10351562 12.703125 C55.96541286 11.42527434 56.84311388 10.1579447 57.73608398 8.90161133 C59.04375656 7.03403712 59.04375656 7.03403712 59.95336914 4.97924805 C61.11489662 2.7561064 61.96915512 1.49353614 64 0 C68.62854324 -0.86734455 73.12478383 -0.658184 77.8125 -0.4375 C79.07771484 -0.40591797 80.34292969 -0.37433594 81.64648438 -0.34179688 C84.76667857 -0.25937665 87.88215803 -0.14435922 91 0 C89.74218914 3.41198411 88.31057859 6.23878805 86.19921875 9.1953125 C85.64000732 9.98486328 85.0807959 10.77441406 84.50463867 11.58789062 C83.60515503 12.84375977 83.60515503 12.84375977 82.6875 14.125 C81.42637922 15.90835645 80.16598125 17.69222424 78.90625 19.4765625 C77.93945312 20.84216309 77.93945312 20.84216309 76.953125 22.23535156 C73.84091896 26.64067921 70.75513395 31.06354306 67.6875 35.5 C67.1308667 36.29422363 66.5742334 37.08844727 66.00073242 37.90673828 C65.48873291 38.64907715 64.9767334 39.39141602 64.44921875 40.15625 C63.99893311 40.80400391 63.54864746 41.45175781 63.0847168 42.11914062 C61.9292752 44.12263422 61.30461226 45.70706855 61 48 C62.4941418 50.59504454 62.4941418 50.59504454 64.75 53.25 C65.59418508 54.32052699 66.43518109 55.39357435 67.2734375 56.46875 C67.72041992 57.03980469 68.16740234 57.61085938 68.62792969 58.19921875 C70.9926508 61.30281002 73.18081983 64.5246299 75.375 67.75 C76.05381226 68.74652588 76.05381226 68.74652588 76.74633789 69.76318359 C77.67940566 71.13321216 78.61209946 72.5034955 79.54443359 73.87402344 C81.06476623 76.0945965 82.60240348 78.30232727 84.14453125 80.5078125 C84.65387207 81.2390332 85.16321289 81.97025391 85.68798828 82.72363281 C86.67119201 84.13424682 87.65773434 85.54254096 88.64794922 86.94824219 C92 91.77549011 92 91.77549011 92 94 C68.21759419 97.01305613 68.21759419 97.01305613 61.59277344 92.28027344 C57.76657826 87.89157484 55.41410036 82.85487335 53.16894531 77.52392578 C51.24916502 73.37883624 48.64313132 69.71216851 46 66 C43.30895452 68.4655073 41.44254994 71.19775749 39.4609375 74.25390625 C38.79835938 75.27291016 38.13578125 76.29191406 37.453125 77.34179688 C36.42445313 78.93604492 36.42445313 78.93604492 35.375 80.5625 C34.68148437 81.62919922 33.98796875 82.69589844 33.2734375 83.79492188 C29.94398388 88.78514257 29.94398388 88.78514257 27 94 C17.76 94 8.52 94 -1 94 C0.44772726 90.38068185 1.31673333 88.2892189 3.51171875 85.34765625 C4.01541992 84.66396973 4.51912109 83.9802832 5.03808594 83.27587891 C5.58239258 82.54546387 6.12669922 81.81504883 6.6875 81.0625 C11.98989357 73.8274158 17.17138783 66.51903298 22.25 59.125 C22.90572998 58.18019775 23.56145996 57.23539551 24.23706055 56.26196289 C24.84461182 55.37371826 25.45216309 54.48547363 26.078125 53.5703125 C26.61856445 52.78414551 27.15900391 51.99797852 27.71582031 51.18798828 C28.99981549 49.00031437 29.79715591 47.52820629 30 45 C29.04558993 42.88436291 29.04558993 42.88436291 27.45703125 40.83203125 C26.8832373 40.02910645 26.30944336 39.22618164 25.71826172 38.39892578 C25.08936035 37.54540527 24.46045898 36.69188477 23.8125 35.8125 C23.17844238 34.93062012 22.54438477 34.04874023 21.89111328 33.14013672 C20.57916976 31.31572038 19.26237869 29.49478078 17.94091797 27.67724609 C15.04770698 23.68643455 12.21230527 19.65563588 9.375 15.625 C8.89135986 14.94284424 8.40771973 14.26068848 7.90942383 13.55786133 C6.59996174 11.70957531 5.29779291 9.85649328 4 8 C3.5968457 7.42733398 3.19369141 6.85466797 2.77832031 6.26464844 C0 2.23474474 0 2.23474474 0 0 Z " fill="#040917" transform="translate(668,471)"/>
<path d="M0 0 C8.05689187 8.43163102 12.49147099 16.88220053 13.3125 28.5625 C13.07114148 37.46977863 8.39312431 46.23716672 2.5 52.8125 C-5.36430505 59.83865916 -15.15645874 63.22921037 -25.5625 63.08984375 C-36.06190891 62.0309545 -44.39971176 56.530003 -51.0625 48.625 C-56.74695556 40.87228715 -59.52940225 32.41081647 -58.3125 22.8125 C-56.57026499 12.87242704 -51.54704082 4.87833038 -43.4375 -1.125 C-29.18476317 -10.19881444 -14.03083475 -9.26564559 0 0 Z " fill="#066BFD" transform="translate(320.3125,478.1875)"/>
<path d="M0 0 C8.25 0 16.5 0 25 0 C25 45.87 25 91.74 25 139 C16.75 139 8.5 139 0 139 C0 93.13 0 47.26 0 0 Z " fill="#0B101C" transform="translate(872,427)"/>
<path d="M0 0 C1.04027344 -0.00257813 2.08054687 -0.00515625 3.15234375 -0.0078125 C6.0625 0.125 6.0625 0.125 10.0625 1.125 C10.0625 9.045 10.0625 16.965 10.0625 25.125 C1.5625 24.875 1.5625 24.875 -1.06445312 24.76464844 C-6.8427664 24.68344821 -11.12424431 25.87700811 -15.9375 29.125 C-23.73059077 36.91809077 -24.39048987 44.09705422 -24.44921875 54.62109375 C-24.46716995 55.80977554 -24.48512115 56.99845734 -24.50361633 58.22315979 C-24.5576027 62.00290427 -24.59157867 65.78252328 -24.625 69.5625 C-24.65818325 72.13217887 -24.69267384 74.70184121 -24.72851562 77.27148438 C-24.81577247 83.55600651 -24.87594443 89.83996375 -24.9375 96.125 C-32.8575 96.125 -40.7775 96.125 -48.9375 96.125 C-48.9375 65.105 -48.9375 34.085 -48.9375 2.125 C-41.3475 2.125 -33.7575 2.125 -25.9375 2.125 C-25.9375 6.745 -25.9375 11.365 -25.9375 16.125 C-25.2775 16.125 -24.6175 16.125 -23.9375 16.125 C-23.875625 15.58875 -23.81375 15.0525 -23.75 14.5 C-21.55027636 8.0700386 -16.7519208 5.1261195 -11.0234375 2.10546875 C-7.1869868 0.30219323 -4.19924406 -0.01038132 0 0 Z " fill="#040917" transform="translate(1176.9375,468.875)"/>
<path d="M0 0 C8.25 0 16.5 0 25 0 C25 31.68 25 63.36 25 96 C16.75 96 8.5 96 0 96 C0 64.32 0 32.64 0 0 Z " fill="#0B0F1C" transform="translate(629,470)"/>
<path d="M0 0 C5.47928493 4.15315406 9.22517471 9.16488527 10.33227539 16.07348633 C11.03529601 24.9247459 10.87316481 33.13852227 5.91796875 40.7890625 C1.02339917 46.4312751 -4.52320627 49.58048787 -11.91796875 50.2734375 C-20.41220395 50.53729666 -26.2514 49.4503211 -32.5546875 43.54296875 C-39.61255756 35.62896652 -39.76921532 27.92221354 -39.46875 17.8828125 C-39.04968213 11.75743708 -37.37804627 7.38698106 -33 3 C-23.03292962 -5.44578069 -11.4292826 -6.42306791 0 0 Z " fill="#F9F9FA" transform="translate(1079,495)"/>
<path d="M0 0 C6.7662803 3.4247605 10.84470891 8.99115799 13.22265625 16.125 C13.97954843 25.65102875 14.23499204 34.15410027 8.22265625 42.125 C3.49693316 47.50452459 -2.10472566 50.58843142 -9.2265625 51.40625 C-16.2593957 51.66473085 -21.66863516 50.17392157 -27.52734375 46.3125 C-34.0177057 40.00242588 -36.80711419 32.06693109 -37.21484375 23.125 C-36.97365146 15.83180443 -34.1228843 8.18159241 -28.77734375 3.125 C-18.87523596 -3.19434515 -10.96681469 -4.88167331 0 0 Z " fill="#F8F8F9" transform="translate(1252.77734375,492.875)"/>
<path d="M0 0 C4.61755617 3.22636937 8.89986377 7.62785253 11.4375 12.703125 C12.67337057 29.2759468 12.67337057 29.2759468 7.4375 35.703125 C2.28116212 41.32718379 -3.13761647 45.02620632 -10.78515625 45.98046875 C-17.88281522 46.28482805 -23.64421312 44.43683618 -29.25 40.078125 C-35.09008926 34.59969264 -37.84512804 29.20093758 -38.125 21.140625 C-37.76188586 13.14280335 -35.62140098 8.40762873 -29.875 2.890625 C-20.8168502 -4.45654095 -10.20829367 -5.55075968 0 0 Z " fill="#F9FBFD" transform="translate(387.5625,393.296875)"/>
<path d="M0 0 C4.41375 -0.0825 8.8275 -0.165 13.375 -0.25 C15.43113525 -0.30462402 15.43113525 -0.30462402 17.52880859 -0.36035156 C25.44007935 -0.43142804 33.47378792 -0.08947232 39.64208984 5.48364258 C44.65610359 11.3134928 45.4416443 15.25578518 45.31640625 22.76171875 C44.76883519 28.36587191 42.73355251 31.31330026 38.6875 35.25 C30.50470765 40.5783299 23.69173196 40.36884046 14.0625 40.1875 C9.421875 40.125625 4.78125 40.06375 0 40 C0 26.8 0 13.6 0 0 Z " fill="#F9F9F9" transform="translate(544,452)"/>
<path d="M0 0 C3.75916716 2.05045481 5.62598016 3.43897024 8 7 C9.19842134 11.19447469 9.87243298 15.69491018 9 20 C6.52489045 24.12786999 3.51295502 27.22166085 -1 29 C-5.88155349 29.69276172 -9.88243347 29.51739191 -14.375 27.4375 C-18.58451795 23.5286619 -20.73187311 20.18331894 -21.4375 14.4375 C-20.76089326 9.1213042 -19.02286886 5.67999063 -15 2.1875 C-9.9019187 -1.52985095 -5.94691329 -1.32942942 0 0 Z " fill="#050A18" transform="translate(647,427)"/>
<path d="M0 0 C2.5821146 1.78850254 4.6652648 3.88047978 6.75390625 6.21484375 C7.41390625 6.87484375 8.07390625 7.53484375 8.75390625 8.21484375 C9.24890625 12.17484375 9.24890625 12.17484375 9.75390625 16.21484375 C-4.76609375 16.21484375 -19.28609375 16.21484375 -34.24609375 16.21484375 C-32.68766525 8.42270123 -28.59879814 3.71060378 -22.24609375 -0.78515625 C-15.04406224 -4.30614943 -6.90741755 -3.92118047 0 0 Z " fill="#F6F6F7" transform="translate(1361.24609375,490.78515625)"/>
<path d="M0 0 C5.07290036 4.13045786 5.14068503 7.12548023 6 14 C-8.19 14 -22.38 14 -37 14 C-34.85832454 4.36246042 -33.53329713 2.24892423 -26 -3 C-17.14063132 -7.52393294 -7.91811718 -5.32086243 0 0 Z " fill="#F6F6F7" transform="translate(827,493)"/>
<path d="M0 0 C0.99 0.66 1.98 1.32 3 2 C2.27087654 2.82543304 2.27087654 2.82543304 1.52702332 3.6675415 C-0.30023503 6.45859532 -0.39295043 8.00783592 -0.43237305 11.31933594 C-0.45216721 12.38013367 -0.47196136 13.4409314 -0.49235535 14.53387451 C-0.49874527 15.67253967 -0.50513519 16.81120483 -0.51171875 17.984375 C-0.52966995 19.15510559 -0.54762115 20.32583618 -0.56611633 21.53204346 C-0.62029866 25.27132567 -0.65414142 29.01047964 -0.6875 32.75 C-0.72066597 35.28517412 -0.75515494 37.82033131 -0.79101562 40.35546875 C-0.87602984 46.57019752 -0.94434634 52.78494272 -1 59 C-1.33 59 -1.66 59 -2 59 C-2.05071764 51.40115204 -2.08574107 43.80234776 -2.10986328 36.20336914 C-2.11991967 33.61839161 -2.13356649 31.03342545 -2.15087891 28.44848633 C-2.17514271 24.73255608 -2.18648684 21.01677627 -2.1953125 17.30078125 C-2.20563507 16.14540359 -2.21595764 14.99002594 -2.22659302 13.79963684 C-2.22674408 12.71889389 -2.22689514 11.63815094 -2.22705078 10.5246582 C-2.231492 9.57645706 -2.23593323 8.62825592 -2.24050903 7.65132141 C-1.9797742 4.77703504 -1.19554424 2.61313188 0 0 Z " fill="#CDD0D5" transform="translate(1154,506)"/>
<path d="M0 0 C0.99 0.495 0.99 0.495 2 1 C2 2.32 2 3.64 2 5 C3.32 5.33 4.64 5.66 6 6 C4.68 8.64 3.36 11.28 2 14 C1.34 14 0.68 14 0 14 C0 9.38 0 4.76 0 0 Z " fill="#C0C0C4" transform="translate(1151,471)"/>
<path d="M0 0 C0.33 0 0.66 0 1 0 C1.18376454 4.04281989 0.97424628 6.49022883 -1 10 C-1.68960962 11.99220557 -2.36079057 13.99105606 -3 16 C-3.66 15.67 -4.32 15.34 -5 15 C-3.97137215 9.55432314 -2.75385216 4.88182883 0 0 Z " fill="#0F121B" transform="translate(1308,492)"/>
<path d="M0 0 C0.66 0.33 1.32 0.66 2 1 C0.55922954 4.36179774 -1.24750021 6.59156268 -4 9 C-4.66 9 -5.32 9 -6 9 C-6 9.66 -6 10.32 -6 11 C-6.66 11 -7.32 11 -8 11 C-6.52670958 5.99081256 -3.72484762 3.48192278 0 0 Z " fill="#111525" transform="translate(779,481)"/>
<path d="M0 0 C0.99 0.66 1.98 1.32 3 2 C2.2733313 2.84256348 2.2733313 2.84256348 1.53198242 3.70214844 C-0.20339389 6.30507463 -0.41266901 7.67527323 -0.51171875 10.765625 C-0.54716797 11.65507813 -0.58261719 12.54453125 -0.61914062 13.4609375 C-0.64169922 14.38132812 -0.66425781 15.30171875 -0.6875 16.25 C-0.72166016 17.18585937 -0.75582031 18.12171875 -0.79101562 19.0859375 C-0.87332162 21.39050533 -0.9425263 23.69470119 -1 26 C-1.33 26 -1.66 26 -2 26 C-2.05830787 22.60423938 -2.09369946 19.2086085 -2.125 15.8125 C-2.14175781 14.85279297 -2.15851563 13.89308594 -2.17578125 12.90429688 C-2.18222656 11.97294922 -2.18867187 11.04160156 -2.1953125 10.08203125 C-2.20578613 9.22843018 -2.21625977 8.3748291 -2.22705078 7.49536133 C-1.97204194 4.69273185 -1.15541422 2.55270581 0 0 Z " fill="#BCBDC3" transform="translate(1154,506)"/>
<path d="M0 0 C0.66 0.33 1.32 0.66 2 1 C1.57847656 1.4125 1.15695312 1.825 0.72265625 2.25 C-3.64375481 6.85271095 -4.68982455 9.69309917 -5 16 C-5.30169066 17.34084736 -5.61517681 18.6806062 -6 20 C-7.57395026 15.27814921 -7.57413051 11.46403281 -5.75 6.8125 C-4.06961801 4.11188609 -2.36061212 2.11641087 0 0 Z " fill="#3D404B" transform="translate(633,428)"/>
<path d="M0 0 C1.04750157 3.33152755 1.00335257 6.0975502 0.6875 9.5625 C0.60886719 10.51253906 0.53023438 11.46257812 0.44921875 12.44140625 C0 15 0 15 -2 18 C-2.2361959 11.59646678 -1.823321 6.15370839 0 0 Z " fill="#4B93FB" transform="translate(264,493)"/>
<path d="M0 0 C2.22825644 2.22825644 2.69239369 3.65761628 3.625 6.625 C3.88539063 7.44226563 4.14578125 8.25953125 4.4140625 9.1015625 C4.60742188 9.72804688 4.80078125 10.35453125 5 11 C4.34 11.66 3.68 12.32 3 13 C2.30093058 11.40084119 1.61610532 9.79544955 0.9375 8.1875 C0.55464844 7.29417969 0.17179688 6.40085937 -0.22265625 5.48046875 C-1 3 -1 3 0 0 Z " fill="#111420" transform="translate(850,488)"/>
<path d="M0 0 C0.66 0 1.32 0 2 0 C1.67 1.32 1.34 2.64 1 4 C0.34 4 -0.32 4 -1 4 C-0.67 4.99 -0.34 5.98 0 7 C-1.32 7.99 -2.64 8.98 -4 10 C-4.66 9.67 -5.32 9.34 -6 9 C-5.05016642 7.49460339 -4.08988109 5.99579653 -3.125 4.5 C-2.59132813 3.6646875 -2.05765625 2.829375 -1.5078125 1.96875 C-0.76144531 0.99421875 -0.76144531 0.99421875 0 0 Z " fill="#181A26" transform="translate(693,526)"/>
<path d="M0 0 C3.63 0 7.26 0 11 0 C11 0.33 11 0.66 11 1 C9.329375 1.2165625 9.329375 1.2165625 7.625 1.4375 C4.17857953 1.78372035 4.17857953 1.78372035 2 3 C1.53476937 4.89533342 1.53476937 4.89533342 1.375 7.0625 C1.25125 8.361875 1.1275 9.66125 1 11 C0.01 10.67 -0.98 10.34 -2 10 C-1.34 10 -0.68 10 0 10 C0 6.7 0 3.4 0 0 Z " fill="#1C1F2E" transform="translate(1266,471)"/>
<path d="M0 0 C0.33 0 0.66 0 1 0 C1 3.3 1 6.6 1 10 C-2.76687864 8.11656068 -3.79421646 7.30867531 -6 4 C-3.525 4.495 -3.525 4.495 -1 5 C-0.67 3.35 -0.34 1.7 0 0 Z " fill="#CDCDCF" transform="translate(1265,471)"/>
<path d="M0 0 C0.66 0.33 1.32 0.66 2 1 C1.57847656 1.48210937 1.15695312 1.96421875 0.72265625 2.4609375 C0.17480469 3.09257812 -0.37304688 3.72421875 -0.9375 4.375 C-1.48277344 5.00148438 -2.02804687 5.62796875 -2.58984375 6.2734375 C-4.06958624 7.95632334 -4.06958624 7.95632334 -5 10 C-5.66 10 -6.32 10 -7 10 C-5.6062718 5.56541027 -3.39417765 3.12621626 0 0 Z " fill="#C9E4FE" transform="translate(359,395)"/>
<path d="M0 0 C0 0.33 0 0.66 0 1 C-4.51617599 1.07654536 -8.59085217 1.10228696 -13 0 C-13 -0.33 -13 -0.66 -13 -1 C-8.05632546 -2.20577428 -4.79137588 -1.6290678 0 0 Z " fill="#3F8EF9" transform="translate(215,638)"/>
<path d="M0 0 C0.66 0.66 1.32 1.32 2 2 C1.01 3.98 0.02 5.96 -1 8 C-1.99 8 -2.98 8 -4 8 C-2.87548273 5.0280615 -1.77706209 2.66559313 0 0 Z " fill="#202433" transform="translate(1200,487)"/>
<path d="M0 0 C0.33 0.99 0.66 1.98 1 3 C-1.3125 5.0625 -1.3125 5.0625 -4 7 C-4.99 6.67 -5.98 6.34 -7 6 C-4.69 4.02 -2.38 2.04 0 0 Z " fill="#237CFC" transform="translate(176,358)"/>
<path d="M0 0 C0.66 0.33 1.32 0.66 2 1 C1.21654285 2.17219543 0.42297164 3.33763668 -0.375 4.5 C-0.81585938 5.1496875 -1.25671875 5.799375 -1.7109375 6.46875 C-2.13632812 6.9740625 -2.56171875 7.479375 -3 8 C-3.66 8 -4.32 8 -5 8 C-3.8141763 4.62496331 -2.72426311 2.35277269 0 0 Z " fill="#287CF9" transform="translate(273,480)"/>
<path d="M0 0 C1.65 0 3.3 0 5 0 C4.34 1.65 3.68 3.3 3 5 C1.68 4.01 0.36 3.02 -1 2 C-0.67 1.34 -0.34 0.68 0 0 Z " fill="#0E0F1B" transform="translate(754,471)"/>
<path d="M0 0 C1.65 0 3.3 0 5 0 C4.67 2.31 4.34 4.62 4 7 C0 2.25 0 2.25 0 0 Z " fill="#131526" transform="translate(668,471)"/>
<path d="M0 0 C0.66 0.33 1.32 0.66 2 1 C-0.475 4.465 -0.475 4.465 -3 8 C-3.66 7.67 -4.32 7.34 -5 7 C-3.35 4.69 -1.7 2.38 0 0 Z " fill="#292D3B" transform="translate(732,471)"/>
</svg>
